<?xml version="1.0" encoding="utf-8"?>
<!-- Generator: Adobe Illustrator 22.0.1, SVG Export Plug-In . SVG Version: 6.00 Build 0)  -->
<svg version="1.1" id="Layer_1" xmlns="http://www.w3.org/2000/svg" xmlns:xlink="http://www.w3.org/1999/xlink" x="0px" y="0px"
	 viewBox="0 0 64 64" style="enable-background:new 0 0 64 64;" xml:space="preserve">
<g>
	<path d="M39.1,2.8h-3.6c-0.7-1.2-2-2-3.5-2c-1.5,0-2.8,0.8-3.5,2h-3.6c-1.1,0-2,0.9-2,2v5.5c0,0.6,0.5,1,1,1h16.1c0.6,0,1-0.4,1-1
		V4.9C41.2,3.7,40.3,2.8,39.1,2.8L39.1,2.8z M32.1,6.4c-0.8,0-1.5-0.7-1.5-1.5s0.7-1.5,1.5-1.5s1.5,0.7,1.5,1.5
		C33.6,5.7,32.9,6.4,32.1,6.4L32.1,6.4z"/>
	<path d="M51.1,4.8h-7.3c0,0,0,0,0,0v5.5c0,0,0,0,0,0.1h5.4c0.6,0,1,0.4,1,1v46.3c0,0.6-0.5,1-1,1H15c-0.6,0-1-0.5-1-1V11.5
		c0-0.6,0.4-1,1-1h5.4c0,0,0,0,0-0.1V4.9c0,0,0,0,0,0h-7.5c-1.7,0-3,1.4-3,3v52.3c0,1.7,1.4,3,3,3h38.2c1.7,0,3-1.4,3-3V7.8
		C54.1,6.2,52.8,4.8,51.1,4.8z"/>
	<g>
		<path d="M36.4,21H27c-0.5,0-0.9-0.4-0.9-0.9c0-0.5,0.4-0.9,0.9-0.9h9.4c0.5,0,0.9,0.4,0.9,0.9C37.3,20.6,36.9,21,36.4,21L36.4,21z
			"/>
		<path d="M45.8,24.8H27c-0.5,0-0.9-0.4-0.9-0.9c0-0.5,0.4-0.9,0.9-0.9h18.8c0.5,0,0.9,0.4,0.9,0.9C46.7,24.4,46.3,24.8,45.8,24.8
			L45.8,24.8z"/>
		<path d="M36.4,33.9H27c-0.5,0-0.9-0.4-0.9-0.9s0.4-0.9,0.9-0.9h9.4c0.5,0,0.9,0.4,0.9,0.9C37.3,33.6,36.9,33.9,36.4,33.9
			L36.4,33.9z"/>
		<path d="M45.6,37.7H27c-0.5,0-0.9-0.4-0.9-0.9S26.6,36,27,36h18.6c0.5,0,0.9,0.4,0.9,0.9S46.1,37.7,45.6,37.7L45.6,37.7z"/>
		<path d="M36.4,46.9H27c-0.5,0-0.9-0.4-0.9-0.9s0.4-0.9,0.9-0.9h9.4c0.5,0,0.9,0.4,0.9,0.9C37.3,46.5,36.9,46.9,36.4,46.9
			L36.4,46.9z"/>
		<path d="M45.5,50.6H27c-0.5,0-0.9-0.4-0.9-0.9s0.4-0.9,0.9-0.9h18.4c0.5,0,0.9,0.4,0.9,0.9C46.3,50.2,45.9,50.6,45.5,50.6
			L45.5,50.6z"/>
		<path d="M19.7,23.7L19.7,23.7c-0.2,0-0.5-0.1-0.6-0.3l-1.5-1.6c-0.3-0.3-0.3-0.9,0.1-1.2c0.3-0.3,0.9-0.3,1.2,0.1l0.9,1l2.8-3
			c0.3-0.3,0.9-0.4,1.2,0c0.3,0.3,0.4,0.9,0,1.2l-3.5,3.7C20.1,23.6,19.9,23.7,19.7,23.7L19.7,23.7z"/>
		<path d="M19.7,36.7L19.7,36.7c-0.2,0-0.5-0.1-0.6-0.3l-1.5-1.6c-0.3-0.3-0.3-0.9,0.1-1.2c0.3-0.3,0.9-0.3,1.2,0.1l0.9,1l2.8-3
			c0.3-0.3,0.9-0.4,1.2,0s0.4,0.9,0,1.2l-3.5,3.7C20.1,36.6,19.9,36.7,19.7,36.7L19.7,36.7z"/>
		<circle cx="20.7" cy="47.7" r="3.3"/>
	</g>
</g>
</svg>
