<?xml version="1.0" ?><svg enable-background="new 0 0 512 512" id="Layer_1" version="1.1" viewBox="0 0 512 512" xml:space="preserve" xmlns="http://www.w3.org/2000/svg" xmlns:xlink="http://www.w3.org/1999/xlink"><g><path d="M193.4,257.8c-0.2,0-0.5,0-0.7-0.1l-18.7-7.4c-1-0.4-1.5-1.6-1.1-2.6c0.4-1,1.6-1.5,2.6-1.1l18.7,7.4   c1,0.4,1.5,1.6,1.1,2.6C194.9,257.3,194.2,257.8,193.4,257.8z"/><path d="M199.7,252.6c-0.2,0-0.5,0-0.7-0.1l-18.7-7.4c-1-0.4-1.5-1.6-1.1-2.6c0.4-1,1.6-1.5,2.6-1.1l18.7,7.4   c1,0.4,1.5,1.6,1.1,2.6C201.2,252.1,200.5,252.6,199.7,252.6z"/><path d="M206,247.5c-0.2,0-0.5,0-0.7-0.1l-18.7-7.4c-1-0.4-1.5-1.6-1.1-2.6c0.4-1,1.6-1.5,2.6-1.1l18.7,7.4c1,0.4,1.5,1.6,1.1,2.6   C207.5,247,206.8,247.5,206,247.5z"/><path d="M212.2,242.3c-0.2,0-0.5,0-0.7-0.1l-18.7-7.4c-1-0.4-1.5-1.6-1.1-2.6c0.4-1,1.6-1.5,2.6-1.1l18.7,7.4   c1,0.4,1.5,1.6,1.1,2.6C213.8,241.8,213,242.3,212.2,242.3z"/><path d="M218.5,237.1c-0.2,0-0.5,0-0.7-0.1l-18.7-7.4c-1-0.4-1.5-1.6-1.1-2.6c0.4-1,1.6-1.5,2.6-1.1l18.7,7.4   c1,0.4,1.5,1.6,1.1,2.6C220.1,236.7,219.3,237.1,218.5,237.1z"/><path d="M224.8,232c-0.2,0-0.5,0-0.7-0.1l-18.7-7.4c-1-0.4-1.5-1.6-1.1-2.6c0.4-1,1.6-1.5,2.6-1.1l18.7,7.4c1,0.4,1.5,1.6,1.1,2.6   C226.4,231.5,225.6,232,224.8,232z"/></g><g><path d="M149.2,200.2c1.4,3,4.5,5,7.8,5h62.1c1.7,0,3-1.3,3-3c0-1.7-1.3-3-3-3H157c-1,0-1.9-0.6-2.3-1.5l-7.2-15.6   c-0.7-1.5-2.5-2.2-4-1.5c-1.5,0.7-2.2,2.5-1.5,4L149.2,200.2z"/><path d="M223.2,279.7c-2.3,11.8,5.4,23.2,17.2,25.4c2.4,0.5,4.8,0.5,7,0.2l31.8-2l0,0c6.2,0.3,11.9-4,13.1-10.3   c1.2-6.3-2.4-12.4-8.3-14.4l0-0.1L255.2,265c-0.9-0.5-1.9-1-3-1.4L251,263l0,0.1c-0.8-0.2-1.6-0.5-2.4-0.6   C236.9,260.2,225.5,267.9,223.2,279.7z M244.8,266.4c9.6,0,17.4,7.8,17.4,17.4s-7.8,17.4-17.4,17.4c-9.6,0-17.4-7.8-17.4-17.4   S235.2,266.4,244.8,266.4z"/><path d="M313.2,242.8c0.3-0.8-0.1-1.6-0.8-2l-4-1.6l1.3-3.2c0.8-2-0.2-4.2-2.1-5l-7.5-3c-2-0.8-4.2,0.2-5,2.1l-1.3,3.2l-10.1-4.1   l1.3-3.2c0.8-2-0.2-4.2-2.1-5l-7.5-3c-2-0.8-4.2,0.2-5,2.1l-1.3,3.2l-4-1.6c-0.8-0.3-1.6,0.1-2,0.8c-0.3,0.8,0.1,1.6,0.8,2   l47.3,19.1C312,244,312.9,243.6,313.2,242.8z"/><path d="M309.9,246.6c0.3-0.7-0.1-1.6-0.8-1.9l-44.3-17.8c-0.7-0.3-1.6,0.1-1.9,0.8c-0.3,0.7,0.1,1.6,0.8,1.9l44.3,17.8   C308.7,247.7,309.6,247.3,309.9,246.6z"/><path d="M306.5,250.3c0.3-0.7-0.1-1.5-0.8-1.8l-41.2-16.6c-0.7-0.3-1.5,0.1-1.8,0.8c-0.3,0.7,0.1,1.5,0.8,1.8l41.2,16.6   C305.4,251.4,306.2,251.1,306.5,250.3z"/><path d="M303.2,254.1c0.3-0.7-0.1-1.5-0.7-1.7L264.3,237c-0.7-0.3-1.5,0.1-1.7,0.7c-0.3,0.7,0.1,1.5,0.7,1.7l38.2,15.4   C302.1,255.1,302.9,254.8,303.2,254.1z"/><path d="M299.8,257.9c0.3-0.7-0.1-1.4-0.7-1.7L264,242c-0.7-0.3-1.4,0.1-1.7,0.7c-0.3,0.7,0.1,1.4,0.7,1.7l35.1,14.1   C298.8,258.8,299.6,258.5,299.8,257.9z"/><path d="M296.5,261.6c0.3-0.6-0.1-1.3-0.7-1.6l-32.1-12.9c-0.6-0.3-1.3,0.1-1.6,0.7s0.1,1.3,0.7,1.6l32.1,12.9   C295.5,262.5,296.2,262.2,296.5,261.6z"/><path d="M293.1,265.4c0.2-0.6,0-1.3-0.6-1.5l-29-11.7c-0.6-0.2-1.3,0-1.5,0.6c-0.2,0.6,0,1.3,0.6,1.5l29,11.7   C292.2,266.2,292.9,266,293.1,265.4z"/><path d="M288.4,269.7c0.6,0.2,1.2,0,1.4-0.6c0.2-0.6,0-1.2-0.6-1.4l-26-10.5c-0.6-0.2-1.2,0-1.4,0.6c-0.2,0.6,0,1.2,0.6,1.4   L288.4,269.7z"/><path d="M236.7,231.3v6.5l9.8,2.2v-2.5h1.6v5.1c0,2.7,2.2,4.8,4.8,4.8c2.7,0,4.8-2.2,4.8-4.8v-13.9c0-2.7-2.2-4.8-4.8-4.8   c-2.7,0-4.8,2.2-4.8,4.8v2.9h-1.6v-2.5L236.7,231.3z"/><path d="M304.4,169.3c0.5,0,1-0.1,1.5-0.2l17.3-5.6c1.5,1.3,3.5,2,5.6,2c4.9,0,8.8-4,8.8-8.8s-4-8.8-8.8-8.8c-3.9,0-7.2,2.5-8.4,6   l-17.7,5.7c-2.6,0.9-4.1,3.7-3.2,6.3C300.3,168,302.3,169.3,304.4,169.3z"/><path d="M358.8,199.6c1,1.2,2.5,1.8,4.1,1.8l7.5,0c2.1,0,3.8-8.7,3.8-19.5c0-10.8-1.7-19.5-3.8-19.5l-7.5,0c-1.6,0-3,0.7-4.1,1.9   l-12.1,13l3.8,12.8L358.8,199.6z"/><path d="M392,239.7c-5.4,0-10.7,0.7-15.7,2l8.2,18.5c1.1-0.2,2.3-0.4,3.5-0.5l-1.6,4.8l3,6.8l2.6-7.8l7,21.4   c-2.2-0.9-4.5-1.4-7-1.4c-0.9,0-1.7,0.1-2.6,0.2l-23.8-53.9l1.8-0.8l-6.5-14.6l-1.8,0.8l-22-49.9c-2.1,2-5,3.3-8.2,3.3   c-0.4,0-0.9,0-1.3-0.1l14.7,33.3L297,298.6c-2.7,5.7-8.5,9.4-14.8,9.4h-60.3c-4.4,0-8.5-1.7-11.6-4.8l-10.8-10.8l21.4-22.1   l18.2-54.7c31.3,0.3,88.3,0.4,93.6-2.9c7.3-4.7,1.7-28.3,0-29.7c-23.4-18.7-62.1-14.5-82.1-10.6c-7.9,1.5-14.6,6.8-18.1,14.1   l-6.6,13.9c-1.9,3.9-1.1,8.2,1.3,11.2l-23.8,18.6l-27.8-14.4h44.2c2.8,0,4.4-3.3,2.5-5.5l-2.8-3.4h-67.2c-2.2,0-4.1-1.3-5.1-3.2   l-8.5-18.3c-39.8,0-39,30.3-39,30.3h59.3l37,20.1l-65.5,51.4c-2.2-1.6-4.8-2.7-7.6-3.2c-0.2,0-0.5-0.1-0.7-0.1   c-0.2,0-0.5-0.1-0.7-0.1c-0.5,0-1-0.1-1.6-0.1l0,0h0c-0.6,0-1.3,0-1.9,0.1c-0.1,0-0.2,0-0.2,0c-0.5,0.1-1.1,0.1-1.6,0.3   c0,0,0,0-0.1,0c-1.2,0.3-2.3,0.6-3.4,1.1l7.2-21.9l6.6,20l4.2-3.3l-6.7-20.5c8.2,0.8,15.7,3.9,21.8,8.6l16-12.5   c-11-10-25.7-16.1-41.8-16.1c-34.4,0-62.2,27.9-62.2,62.2c0,34.4,27.9,62.2,62.2,62.2c33.4,0,60.7-26.4,62.2-59.4l-20.1,2.5   c-1.3,10.5-6.5,19.8-14,26.4l-7.6-23.8l-4.5,0.6c1-1.8,1.6-3.7,1.9-5.8l53.3-6.6l12.2,12.2c5,5,11.6,7.7,18.6,7.7h60.3   c10.2,0,19.5-6,23.9-15.2l41.6-89l2.4,5.4l-1.9,0.8l6.5,14.6l1.8-0.8l23.8,53.8c-4.1,3.4-6.7,8.5-6.7,14.2c0,0.6,0,1.2,0.1,1.8   l-18.5-13.5l20.7-0.1l-2.2-5l-20.7,0.1c2.9-6.7,7.5-12.5,13.2-16.9l-8.2-18.5c-17,11.1-28.3,30.3-28.3,52.2   c0,34.4,27.9,62.2,62.2,62.2s62.2-27.9,62.2-62.2C454.3,267.5,426.4,239.7,392,239.7z M108.4,206.3l0-0.5c0-0.2,1.3-16.9,27.2-16.9   h0.3l8.4,17.5H108.4z M245,176.1c-0.1,0-0.1,0-0.2,0C244.8,176.2,244.8,176.2,245,176.1z M269.5,207.5c2-0.1,3.7-1.5,4.3-3.4   l7.9-26.2c0,0-20.7-4.2-34.9-2.1c6.6-1,27.5-3.8,39.2,0.3l-8.3,30c-0.6,2.1-2.4,3.5-4.6,3.5h-43.8L269.5,207.5z M227,224.3   l-4.9,15.6l-9-4.7L227,224.3z M205.6,241.1l13.7,7.5l-6.2,16.8L191.3,288l-54.1,6.7L205.6,241.1z M102,304l-18.8-13.8l23.1-0.1   c0,0,0,0,0,0c-0.3,0.4-0.6,0.7-0.9,1.1c-0.1,0.1-0.1,0.1-0.2,0.2c-0.2,0.3-0.5,0.7-0.7,1c-0.1,0.1-0.1,0.2-0.2,0.4   c-0.2,0.3-0.4,0.7-0.5,1c-0.1,0.2-0.2,0.3-0.2,0.5c-0.1,0.3-0.3,0.6-0.4,1c-0.1,0.2-0.2,0.4-0.2,0.6c-0.1,0.3-0.2,0.6-0.3,0.9   c-0.1,0.3-0.1,0.5-0.2,0.8c-0.1,0.3-0.1,0.5-0.2,0.8c-0.1,0.3-0.1,0.7-0.2,1c0,0.2-0.1,0.4-0.1,0.7c-0.1,0.6-0.1,1.1-0.1,1.7   c0,0,0,0,0,0c0,0,0,0,0,0c0,0.5,0,1,0.1,1.5C102,303.6,102,303.8,102,304C102,304,102,304,102,304z M116,259.7l-8.3,25.4L81,285.2   C87,271.3,100.2,261.2,116,259.7z M77.6,301.9c0-3.1,0.3-6.1,1-8.9l21.4,15.7l-8.1,25C83.1,325.9,77.6,314.6,77.6,301.9z    M104.4,311.1C104.4,311.1,104.4,311.1,104.4,311.1c0.3,0.5,0.7,1,1,1.5c0,0,0,0,0,0.1c0.4,0.5,0.7,0.9,1.1,1.4   c0,0,0.1,0.1,0.1,0.1c0.4,0.4,0.8,0.8,1.2,1.2c0.1,0.1,0.1,0.1,0.2,0.2c0.4,0.3,0.8,0.7,1.2,1c0.1,0.1,0.2,0.1,0.3,0.2   c0.4,0.3,0.8,0.6,1.2,0.8c0.1,0.1,0.2,0.1,0.3,0.2c0.4,0.2,0.9,0.5,1.3,0.7c0.1,0.1,0.2,0.1,0.4,0.2c0.5,0.2,1,0.4,1.5,0.6   c0.1,0,0.2,0.1,0.3,0.1c0.6,0.2,1.2,0.4,1.8,0.5c0,0,0,0,0,0l-19.1,13.8L104.4,311.1z M120,344.3c-7.8,0-15-2.1-21.3-5.7l21.3-15.4   l21.3,15.4C135,342.2,127.8,344.3,120,344.3z M135.6,311.1l7.2,22.3l-19.1-13.8v0c0.6-0.1,1.2-0.3,1.8-0.5c0.1,0,0.2-0.1,0.3-0.1   c0.5-0.2,1-0.4,1.5-0.6c0.1-0.1,0.2-0.1,0.4-0.2c0.4-0.2,0.9-0.4,1.3-0.7c0.1-0.1,0.2-0.1,0.3-0.2c0.4-0.3,0.8-0.5,1.2-0.8   c0.1-0.1,0.2-0.1,0.3-0.2c0.4-0.3,0.8-0.6,1.2-1c0.1-0.1,0.1-0.1,0.2-0.2c0.4-0.4,0.8-0.8,1.2-1.2c0,0,0.1-0.1,0.1-0.1   c0.4-0.4,0.8-0.9,1.1-1.4c0,0,0,0,0-0.1C134.9,312.2,135.2,311.6,135.6,311.1C135.5,311.1,135.6,311.1,135.6,311.1z M431,285.2   l-26.6-0.1l-8.3-25.4C411.8,261.2,425,271.3,431,285.2z M406.1,290.1l22.6,0.1l-18.5,13.5c0.1-0.6,0.1-1.2,0.1-1.8   C410.4,297.4,408.8,293.3,406.1,290.1z M349.6,301.9c0-3.1,0.3-6.1,1-8.9l21.4,15.7l-8.1,25C355.1,325.9,349.6,314.6,349.6,301.9z    M376.3,311.5c2.6,4.2,6.8,7.3,11.7,8.4l-18.8,13.6L376.3,311.5z M392,344.3c-7.8,0-15-2.1-21.3-5.7l21.3-15.4l21.3,15.4   C407,342.2,399.8,344.3,392,344.3z M396,319.9c5-1.1,9.1-4.2,11.7-8.4l7.1,21.9L396,319.9z M420.1,333.7l-8.1-25l21.4-15.7   c0.6,2.9,1,5.9,1,8.9C434.4,314.6,428.9,325.9,420.1,333.7z"/><path d="M174.8,272.3l-16,12.5c0.1,0.1,0.1,0.3,0.2,0.4l-0.7,0l-2.1,1.6l23.3-2.9C178.4,279.9,176.7,276,174.8,272.3z"/><path d="M109.5,205.3h33.2l-7.4-15.5C113,190,109.9,202.5,109.5,205.3z"/></g></svg>