<?xml version="1.0" ?><svg enable-background="new 0 0 512 512" id="Layer_1" version="1.1" viewBox="0 0 512 512" xml:space="preserve" xmlns="http://www.w3.org/2000/svg" xmlns:xlink="http://www.w3.org/1999/xlink"><path d="M312.5,178.8c0-5.5-4.5-9.9-9.9-9.9c-5.5,0-9.9,4.5-9.9,9.9v51.6l19.9-5.4V178.8z"/><path d="M337.2,174.9c0-5.2-3.8-9.6-9-10.1c-5.9-0.6-10.9,4.1-10.9,9.9v49l19.9-5.4V174.9z"/><path d="M351.4,171.6c-5.5,0-9.9,4.5-9.9,9.9v32c2.3-1.6,5.2-2.6,8.2-2.6c4.8,0,9.1,2.4,11.7,6v-35.5  C361.3,176.1,356.8,171.6,351.4,171.6z"/><g><path d="M355.8,335.9h-77.5l-4.3,11.5h86.3c0,0-2.1-5.1-4.5-11.6C355.7,335.7,355.7,335.8,355.8,335.9z"/><path d="M355.1,334.1c0.1,0.2,0.1,0.4,0.2,0.5C355.2,334.5,355.2,334.3,355.1,334.1z"/><path d="M361.2,263.3v-37.8c0-6.1-4.7-11.4-10.8-11.8c-3.5-0.2-6.7,1.1-9,3.4c-1.2,1.2-2.3,2.9-2.9,5.1c-0.3,1.2-0.5,2.5-0.5,4V264   l-0.6,0.4c-0.2,0.1-16.6,11.4-16.6,38.7h-2.7c0-26.2,14-38.2,17.2-40.5v-37.3c0-0.8,0.1-1.5,0.2-2.3l-45,11.4v-38.9   c0-5.5-4.5-9.9-9.9-9.9h0c-5.5,0-9.9,4.5-9.9,9.9v90.7c0,6.5,3,12.6,8.2,16.5c0.1,0.1,0.2,0.1,0.2,0.2c5.4,4.1,7.4,11.2,5.1,17.5   l-4.8,12.8l0.2-0.7h75c0,0.1,0.1,0.3,0.1,0.4c-3-8.1-6.3-17.6-7.1-22.5c-3-18.4,13.7-26.4,13.7-40.8L361.2,263.3L361.2,263.3z    M305.9,290.4l-19.6,2.5c-5.7,0.7-10.8-3.7-10.8-9.5v-39.1l54.2-13.8V253C329.7,253,305.9,263.5,305.9,290.4z"/></g><g><path d="M167.9,335.9c-2.4,6.5-4.4,11.5-4.4,11.5h86.3l-4.3-11.5H167.9z M243.1,185.5L243.1,185.5c-5.5,0-9.9,4.5-9.9,9.9v38.9   l-2.1-0.5v-55c0-5.5-4.5-9.9-9.9-9.9c-5.5,0-9.9,4.5-9.9,9.9v50l-4.8-1.2v-53c0-5.8-5-10.5-10.9-9.9c-5.1,0.5-9,5-9,10.1l-0.9,50   l-3.4-1.2v-42.1c0-5.5-4.5-9.9-9.9-9.9c-5.5,0-9.9,4.5-9.9,9.9v59.1c0,0,0.1-0.1,0.1-0.1V255l-2.6-33.7c0,0-0.1,0-0.1,0   c-6,1.1-10,6.9-8.9,12.9c0,0,5.5,32.1,7.9,42.7c3.1,13.6,20.4,15.1,17.3,33.5c-0.8,4.8-4,14.1-6.9,22.1h75l-4.6-12.1   c-2.4-6.3-0.3-13.5,5.1-17.5c0.1-0.1,0.2-0.1,0.2-0.2c5.2-3.9,8.2-10.1,8.2-16.5v-90.7C253.1,190,248.6,185.5,243.1,185.5z"/></g></svg>