<?xml version="1.0" ?><svg enable-background="new 0 0 512 512" id="Layer_1" version="1.1" viewBox="0 0 512 512" xml:space="preserve" xmlns="http://www.w3.org/2000/svg" xmlns:xlink="http://www.w3.org/1999/xlink"><path d="M57.7,256.6c0,0,2.7-0.6,7.1,1.6l-1.7,3.8c0,0-3.6-1.9-6.9-1.4L57.7,256.6z"/><g><path d="M338.9,221.2c0.7,0.4,1.4,0.6,2.2,0.6c1.4,0,2.8-0.7,3.6-2l5-8.3c4.1-0.1,7.3-3.4,7.4-7.5h0.8l3.1,5.8   c0.2,0.4,0.3,1,0.1,1.4c-0.2,0.5-0.6,0.8-1.1,0.9c-2.6,0.6-4.4,2.9-4.4,5.6v5c0,0.9,0.7,1.6,1.6,1.6s1.6-0.7,1.6-1.6v-5   c0-1.2,0.8-2.3,2-2.6c1.4-0.3,2.6-1.3,3.2-2.7c0.6-1.3,0.5-2.9-0.2-4.2l-4-7.5h-3.2c-1.2-2.8-3.9-4.7-7.1-4.7   c-4.2,0-7.7,3.4-7.7,7.7c0,1.2,0.3,2.3,0.8,3.4l-5,8.3C336.3,217.5,336.9,220,338.9,221.2z"/><path d="M380.6,175.8c-21.5-21.2-67.2-22.9-67.2-22.9s1.7,6.4,4.7,14.6C329.5,168.6,358.1,171.6,380.6,175.8z"/><path d="M320.2,268c-0.5-0.6-1.2-1.1-2-1.4c-0.8-0.4-1.7-0.5-2.8-0.5c-0.8,0-1.6,0.1-2.3,0.3c-0.7,0.2-1.4,0.6-2,1.1   c0.1-0.7,0.3-1.4,0.5-2.2c0.3-0.8,0.6-1.5,1.1-2.2c0.5-0.7,1-1.3,1.7-1.7c0.7-0.5,1.5-0.7,2.5-0.7c0.4,0,0.8,0.1,1.3,0.4   c0.5,0.2,0.9,0.6,1.2,1h0.3v-2.2c0,0-0.1,0-0.2,0c-0.1,0-0.3,0-0.4-0.1c-0.2,0-0.5-0.1-0.9-0.1c-0.3,0-0.6-0.1-0.9-0.1   c-1.4,0-2.6,0.3-3.7,1c-1.1,0.7-2,1.6-2.7,2.6c-0.7,1.1-1.3,2.3-1.7,3.6c-0.4,1.4-0.6,2.7-0.6,4.1c0,1.1,0.1,2.1,0.4,3   c0.3,1,0.7,1.8,1.2,2.6c0.5,0.7,1.2,1.3,2.1,1.7c0.8,0.4,1.8,0.6,3,0.6c1.1,0,2-0.2,2.8-0.6c0.8-0.4,1.5-0.9,2-1.5   c0.5-0.6,0.9-1.3,1.2-2.1c0.3-0.8,0.4-1.6,0.4-2.4c0-0.8-0.1-1.6-0.4-2.4C321.2,269.2,320.8,268.6,320.2,268z M319.6,274.6   c-0.2,0.6-0.4,1.1-0.8,1.6c-0.4,0.5-0.8,0.8-1.3,1.1c-0.5,0.3-1.2,0.4-1.9,0.4c-0.8,0-1.5-0.2-2.1-0.5c-0.6-0.4-1.1-0.8-1.5-1.4   c-0.4-0.6-0.7-1.2-1-1.9c-0.2-0.7-0.3-1.4-0.3-2.2c0-0.6,0.1-1.2,0.3-1.7c0.2-0.6,0.4-1.1,0.8-1.5c0.4-0.4,0.8-0.8,1.4-1   c0.5-0.3,1.2-0.4,1.9-0.4c0.8,0,1.4,0.2,2,0.5c0.6,0.3,1.1,0.8,1.5,1.3c0.4,0.5,0.7,1.2,0.9,1.8c0.2,0.7,0.3,1.4,0.3,2.1   C319.9,273.4,319.8,274,319.6,274.6z"/><path d="M335.9,261.7c-0.6-0.8-1.4-1.4-2.2-1.9c-0.8-0.4-1.7-0.6-2.6-0.6c-0.9,0-1.7,0.2-2.6,0.6c-0.8,0.4-1.6,1-2.2,1.9   c-0.7,0.8-1.2,1.8-1.6,3c-0.4,1.2-0.6,2.6-0.6,4.2c0,1.6,0.2,3,0.6,4.3c0.4,1.2,0.9,2.3,1.6,3.1c0.7,0.8,1.4,1.5,2.2,1.9   c0.8,0.4,1.7,0.6,2.6,0.6c0.9,0,1.7-0.2,2.6-0.6c0.8-0.4,1.6-1.1,2.2-1.9c0.6-0.8,1.2-1.9,1.6-3.1c0.4-1.2,0.6-2.6,0.6-4.3   c0-1.6-0.2-3-0.6-4.2C337.1,263.5,336.6,262.5,335.9,261.7z M335.7,273.1c-0.3,1-0.6,1.8-1,2.4c-0.4,0.7-0.9,1.2-1.5,1.5   c-0.6,0.3-1.1,0.5-1.7,0.5c-0.8,0-1.6-0.3-2.3-0.9c-0.7-0.6-1.3-1.4-1.8-2.3c-0.5-0.9-0.9-2-1.1-3.2c-0.3-1.2-0.4-2.3-0.4-3.4   c0-0.9,0.1-1.9,0.3-2.7c0.2-0.9,0.5-1.6,0.9-2.3c0.4-0.7,0.9-1.2,1.4-1.6c0.6-0.4,1.2-0.6,1.9-0.6s1.4,0.2,2.1,0.6   c0.7,0.4,1.3,1,1.8,1.8c0.5,0.8,0.9,1.7,1.3,2.9c0.3,1.1,0.5,2.5,0.5,3.9C336.1,271,336,272.2,335.7,273.1z"/><path d="M160,236.7l-18.7,33.9c-1,1.8-0.3,4,1.5,5c0.6,0.3,1.1,0.4,1.7,0.4c1.3,0,2.6-0.7,3.2-1.9l15.8-28.6l28.6,49.5   c-1,1.5-1.6,3.3-1.7,5.3c1.5,1.1,3,2.2,4.6,3.4c3.4,2.6,6.8,4.7,10,6.2c3.5-1.6,6-5.2,6-9.3c0-2.6-0.9-4.9-2.5-6.7l23.2-55.8   c0.2-0.5,0.3-1,0.3-1.5c15.2-0.3,73.3-1.2,79.4-1.2c7.1,0,44-30.4,2.7-39.9c-27-6.2-54.8,2.2-70.7,8.8   c-8.3,3.4-13.9,11.3-14.3,20.3l-0.4,8.5c-0.5,0-1,0-1.4,0.2l-0.5-1.5c-1.8-4.9-6.4-8.2-11.6-8.2h-25.2c-4.9,0-9.3-2.7-11.5-7.1   l-4-7.9c-1.6-3.2-5-5.2-8.6-5c-51.8,2.2-45.8,33-45.8,33H160z M293,205.3c11.2,6-4.7,26.4-4.7,26.4s12.4-19-2.1-23.2   c-14.5-4.1-43.1,1.9-43.1,1.9S281.8,199.3,293,205.3z M224.3,236.7L202,290.5c-0.4-0.1-0.9-0.1-1.3-0.1c-0.9,0-1.7,0.1-2.6,0.3   l-31.2-54H224.3z M166,205.4c0.6,0,1.1,0.4,1.1,1c0,0.6-0.4,1.1-1,1.1c-42.5,2-42.6,25.9-42.6,26.9c0,0.6-0.5,1.1-1,1.1   c0,0,0,0,0,0c-0.6,0-1-0.5-1-1C121.4,234.1,121.4,207.5,166,205.4z"/><path d="M392.1,300.3c1.1,2.3,3.8,3.3,6.2,2.3h0c2.4-1.1,3.5-3.9,2.3-6.3l-22.7-47.8c0.3-0.2,0.5-0.4,0.8-0.6   c11-8.2,17.2-17.2,18.9-27l0,0h3.9c1.9-11.3-2.3-22.5-2.3-22.5h-4.5l0,0c-2.2-5.4-5.3-11.1-9.4-17c-0.7-1-1.5-2-2.3-3   c-22.1-4.3-51.6-7.4-64.2-8.7c0.8,2.2,1.8,4.5,2.8,6.8c5.2,11.8,24.4,12.5,37.1,12.9s34.2,5,21.4,28.2   c-12.9,23.2-98.2,24.6-98.2,24.6c-3.1,11-8.7,24.9-33.8,41.6s-11.1,58.8,28.2,60.6c39.3,1.7,42.8-3.8,53.6-20.5   c9.5-14.8,21.2-48.5,40.6-68.7L392.1,300.3z M270.8,271c-0.4,0.4-11,10.2-17.7,14.3c-6.4,3.9-20.5,18.3-9,37.9   c0.3,0.5,0.1,1.1-0.4,1.4c-0.2,0.1-0.3,0.1-0.5,0.1c-0.4,0-0.7-0.2-0.9-0.5c-6.6-11.2-4.9-20.6-2.3-26.5c3-6.9,8.4-11.9,12-14.2   c6.6-4,17.3-14,17.4-14.1c0.4-0.4,1.1-0.4,1.5,0.1C271.2,270,271.2,270.6,270.8,271z M322.8,292.1c-12.4,0-22.4-10-22.4-22.4   s10-22.4,22.4-22.4c12.4,0,22.4,10,22.4,22.4S335.2,292.1,322.8,292.1z"/><path d="M152.7,272.6c3,2.8,5.5,6.1,7.5,9.7c7,3,14.9,7.2,24.4,13.7c-1.3-16.7-9.6-31.5-22-41.3L152.7,272.6z"/><path d="M126.2,262.1c5,0,9.7,1,14.1,2.7l9.7-17.6c-7.3-3.2-15.3-5.1-23.8-5.1c-15.8,0-30.1,6.3-40.6,16.4   c6.9,2.4,15.1,5.1,23.1,7.7C114,263.6,119.9,262.1,126.2,262.1z"/><path d="M163.4,310.8c-4.5,16.4-19.4,28.4-37.2,28.4c-21.3,0-38.5-17.3-38.5-38.5c0-7.4,2.1-14.3,5.7-20.2   c-6.9-2.6-13.5-5.1-18.9-7.2c-4.3,8.2-6.8,17.5-6.8,27.4c0,32.3,26.2,58.5,58.5,58.5c23.6,0,44-14,53.2-34.2   c-2.7-2.4-5.1-4.5-7.3-6.4C168.6,315.3,165.8,312.8,163.4,310.8z"/><path d="M397.3,242.1c-2.4,0-4.8,0.2-7.2,0.5c-2.2,2.4-4.8,4.7-7.7,7l6.4,13.5c2.7-0.6,5.5-0.9,8.4-0.9c21.3,0,38.5,17.3,38.5,38.5   c0,21.3-17.3,38.5-38.5,38.5s-38.5-17.3-38.5-38.5c0-12.4,5.9-23.4,15-30.5l-4.1-8.6c-10.8,12.7-19,29.7-26,44.1   c-1.2,2.5-2.4,4.9-3.6,7.2c5.6,26.4,29.1,46.3,57.2,46.3c32.3,0,58.5-26.2,58.5-58.5C455.8,268.3,429.6,242.1,397.3,242.1z"/><path d="M399.8,305.9c-1.1,0.5-2.2,0.7-3.4,0.7c-3.1,0-6.2-1.8-7.6-4.8l-10.2-21.5c-5.5,5-8.9,12.2-8.9,20.2   c0,15.2,12.3,27.6,27.6,27.6c15.2,0,27.6-12.3,27.6-27.6s-12.3-27.6-27.6-27.6c-1.2,0-2.4,0.1-3.6,0.2l10.2,21.4   c1,2,1.1,4.3,0.3,6.5C403.5,303.3,401.9,305,399.8,305.9z M377.2,306.9c-1,0.6-2.4,0.2-3-0.8c-0.6-1-0.2-2.4,0.8-3   c1-0.6,2.4-0.2,3,0.8C378.5,304.9,378.2,306.3,377.2,306.9z M376.7,296c-1.2,0-2.2-1-2.2-2.2c0-1.2,1-2.2,2.2-2.2   c1.2,0,2.2,1,2.2,2.2C378.9,295,377.9,296,376.7,296z M383,316.1c-0.6,1-1.9,1.4-3,0.8s-1.4-1.9-0.8-3c0.6-1,1.9-1.4,3-0.8   C383.2,313.8,383.6,315.1,383,316.1z M390.5,323.4c-1.2,0-2.2-1-2.2-2.2c0-1.2,1-2.2,2.2-2.2s2.2,1,2.2,2.2   C392.6,322.4,391.7,323.4,390.5,323.4z M402.8,323.8c-1,0.6-2.4,0.2-3-0.8c-0.6-1-0.2-2.4,0.8-3c1-0.6,2.4-0.2,3,0.8   C404.2,321.8,403.8,323.2,402.8,323.8z M417.5,294.4c1-0.6,2.4-0.2,3,0.8c0.6,1,0.2,2.4-0.8,3c-1,0.6-2.4,0.2-3-0.8   C416.1,296.3,416.4,295,417.5,294.4z M417.9,305.3c1.2,0,2.2,1,2.2,2.2c0,1.2-1,2.2-2.2,2.2c-1.2,0-2.2-1-2.2-2.2   C415.7,306.3,416.7,305.3,417.9,305.3z M411.6,285.1c0.6-1,1.9-1.4,3-0.8c1,0.6,1.4,1.9,0.8,3c-0.6,1-1.9,1.4-3,0.8   C411.4,287.5,411,286.2,411.6,285.1z M409.8,315.8c0.6-1,1.9-1.4,3-0.8c1,0.6,1.4,1.9,0.8,3c-0.6,1-1.9,1.4-3,0.8   C409.6,318.1,409.2,316.8,409.8,315.8z M404.2,282.2c-1.2,0-2.2-1-2.2-2.2s1-2.2,2.2-2.2c1.2,0,2.2,1,2.2,2.2   S405.4,282.2,404.2,282.2z"/><path d="M126.2,328.2c14.3,0,26.1-10.9,27.4-24.8c-3.5-2.1-7-3.3-13.3-5.5c-1.2-0.4-2.5-0.9-3.9-1.4c-8.2-2.9-20.3-7.4-32.6-12   c-3.3,4.5-5.3,10.1-5.3,16.2C98.7,315.9,111,328.2,126.2,328.2z M148.5,303c1.2,0,2.2,1,2.2,2.2s-1,2.2-2.2,2.2   c-1.2,0-2.2-1-2.2-2.2S147.3,303,148.5,303z M141.4,314.7c0.6-1,1.9-1.4,2.9-0.8c1,0.6,1.4,1.9,0.8,2.9c-0.6,1-1.9,1.4-2.9,0.8   C141.2,317,140.8,315.7,141.4,314.7z M132.3,320.4c1-0.6,2.3-0.2,2.9,0.8c0.6,1,0.2,2.3-0.8,2.9c-1,0.6-2.3,0.2-2.9-0.8   C130.9,322.3,131.3,321,132.3,320.4z M121.6,320.8c1.2,0,2.2,1,2.2,2.2s-1,2.2-2.2,2.2c-1.2,0-2.2-1-2.2-2.2   S120.4,320.8,121.6,320.8z M109.2,316.7c0.6-1,1.9-1.4,2.9-0.8c1,0.6,1.4,1.9,0.8,2.9c-0.6,1-1.9,1.4-2.9,0.8   C108.9,319,108.6,317.7,109.2,316.7z M101.6,296.1c0-1.2,1-2.2,2.2-2.2c1.2,0,2.2,1,2.2,2.2c0,1.2-1,2.2-2.2,2.2   C102.6,298.2,101.6,297.3,101.6,296.1z M105.6,309.7c-1,0.6-2.3,0.2-2.9-0.8c-0.6-1-0.2-2.3,0.8-2.9c1-0.6,2.3-0.2,2.9,0.8   C107,307.8,106.6,309.1,105.6,309.7z"/><path d="M245.6,279.8C245.6,279.8,245.6,279.8,245.6,279.8c-2.2-1-4.8-1.5-7.4-1.5c-10.9,0-19.7,8.8-19.7,19.7   c0,8.8,5.8,16.2,13.7,18.8C228.2,302.1,233.3,287.9,245.6,279.8z"/><path d="M232.9,319c-7.5,1.3-23.4,1.8-40.8-11.5c-24-18.5-37.7-23-51.9-26.6c-19-4.8-74.7-24.2-74.7-24.2l-3.1,7   c0,0,53,20.5,75.7,28.5c22.6,8,15.8,4.4,52.3,36.1c23.6,20.6,51.5,20.1,68.2,17.2C244.6,339.9,236.3,328.9,232.9,319z M208.5,321.9   c-0.1,0-0.1,0-0.2,0c-4.6-0.9-21.2-10.4-27.3-16.1c-6.2-5.8-24.2-15.9-27.4-17.3c-3.2-1.4-29.8-9.2-30.1-9.2   c-0.6-0.2-0.9-0.7-0.7-1.3c0.2-0.6,0.7-0.9,1.3-0.7c1.1,0.3,27,7.9,30.3,9.3c3.3,1.4,21.5,11.6,28,17.7   c6.2,5.8,22.4,14.8,26.3,15.6c0.6,0.1,0.9,0.7,0.8,1.2C209.4,321.5,209,321.9,208.5,321.9z"/><path d="M246.4,264.6h3.6c0,3.8,3,6.8,6.8,6.9c2.7-2.3,5-4.4,7-6.6c0-0.1,0-0.2,0-0.3h0.3c3.7-4,6.4-7.8,8.4-11.3h-9.3v-3.5h1.8   v-3.5h-16.1v3.5h1.8v3.5h-4.3v-3.5l-13.9,2.6v11.5l13.9,2.6V264.6z"/></g></svg>