<?xml version="1.0" ?><svg enable-background="new 0 0 512 512" id="Layer_1" version="1.1" viewBox="0 0 512 512" xml:space="preserve" xmlns="http://www.w3.org/2000/svg" xmlns:xlink="http://www.w3.org/1999/xlink"><g><path d="M392.4,236.4c-6,0-11.7,0.9-17.2,2.4l6.5,14.5c3.4-0.8,7-1.3,10.7-1.3c25.2,0,45.7,20.5,45.7,45.7   c0,25.2-20.5,45.7-45.7,45.7c-25.2,0-45.7-20.5-45.7-45.7c0-15.5,7.7-29.2,19.6-37.5l-6.5-14.5c-17.2,10.9-28.7,30.1-28.7,52   c0,33.9,27.5,61.4,61.4,61.4c33.9,0,61.4-27.5,61.4-61.4C453.7,263.9,426.3,236.4,392.4,236.4z"/><path d="M395.9,305.5c-1.1,0.5-2.3,0.7-3.5,0.7c-3.3,0-6.4-2-7.8-5l-10.8-24.1c-5.6,5.1-9.1,12.4-9.1,20.6   c0,15.3,12.4,27.7,27.7,27.7c15.3,0,27.7-12.4,27.7-27.7c0-15.3-12.4-27.7-27.7-27.7c-1,0-2.1,0.1-3.1,0.2l10.8,24.1   c0.9,2.1,1,4.4,0.2,6.5C399.5,302.9,397.9,304.6,395.9,305.5z"/><path d="M365.9,188.4l1.5-2c-7-1.8-15.8,2.2-15.8,2.2l12.8,31.3C372.4,205.9,365.9,188.4,365.9,188.4z"/><path d="M168,207.4c15.2,3.8,29.8,5.7,44.4,5.7c2.1,0,4.3,0,6.4-0.1c1.9-0.1,3.4-1.7,3.4-3.6c-0.1-1.9-1.6-3.4-3.6-3.4   c-16.1,0.6-32-1.2-48.8-5.4c-7.1-1.8-11.4-4.5-11.6-7.3c-0.1-1.9-1.8-3.4-3.7-3.3c-1.9,0.1-3.4,1.8-3.3,3.7   C151.4,198.1,154.6,204,168,207.4z"/><path d="M254.8,241.7c1.6-0.3,2.7-1.9,2.3-3.5c-0.3-1.6-1.9-2.7-3.5-2.3l-13.5,2.8c-1.2,0.2-2.1,1.2-2.3,2.3l-6.6,31.8   c-8.8,2.2-15.4,10.1-15.4,19.6c0,11.1,9,20.2,20.2,20.2c11.1,0,20.2-9,20.2-20.2c0-10.7-8.3-19.4-18.8-20.1l5.8-28.2L254.8,241.7z"/><circle cx="272.6" cy="294.9" r="14.5"/><path d="M306.7,256.9c0.3-0.7-0.1-1.5-0.8-1.8l-4.7-1.8l2.2-5.7c0.8-2-0.2-4.2-2.2-4.9l-16.4-6.3c-2-0.8-4.2,0.2-4.9,2.2l-2.2,5.7   l-4.7-1.8c-0.7-0.3-1.5,0.1-1.8,0.8c-0.3,0.7,0.1,1.5,0.8,1.8l32.8,12.7c0.2,0.1,0.3,0.1,0.5,0.1   C306,257.8,306.5,257.4,306.7,256.9z"/><path d="M304.9,261.7c0.3-0.7-0.1-1.5-0.8-1.8l-32.8-12.7c-0.7-0.3-1.5,0.1-1.8,0.8c-0.3,0.7,0.1,1.5,0.8,1.8l32.8,12.7   c0.2,0.1,0.3,0.1,0.5,0.1C304.1,262.6,304.7,262.3,304.9,261.7z"/><path d="M301.7,267.4c0.6,0,1.1-0.3,1.3-0.9c0.3-0.7-0.1-1.5-0.8-1.8L269.4,252c-0.7-0.3-1.5,0.1-1.8,0.8c-0.3,0.7,0.1,1.5,0.8,1.8   l32.8,12.7C301.4,267.4,301.5,267.4,301.7,267.4z"/><path d="M296.6,271c0.6,0,1.1-0.3,1.3-0.9c0.3-0.7-0.1-1.5-0.8-1.8l-26.3-10.2c-0.7-0.3-1.5,0.1-1.8,0.8c-0.3,0.7,0.1,1.5,0.8,1.8   l26.3,10.2C296.3,270.9,296.4,271,296.6,271z"/><path d="M291.9,274.7c0.6,0,1.1-0.3,1.3-0.9c0.3-0.7-0.1-1.5-0.8-1.8l-20.6-8c-0.7-0.3-1.5,0.1-1.8,0.8c-0.3,0.7,0.1,1.5,0.8,1.8   l20.6,8C291.6,274.7,291.7,274.7,291.9,274.7z"/><path d="M284.9,277.6c0.2,0.1,0.3,0.1,0.5,0.1c0.6,0,1.1-0.3,1.3-0.9c0.3-0.7-0.1-1.5-0.8-1.8l-11.5-4.4c-0.7-0.3-1.5,0.1-1.8,0.8   c-0.3,0.7,0.1,1.5,0.8,1.8L284.9,277.6z"/><path d="M326.8,272.3l-6.2-4.7l24.7-41.6c0.1,0,0.1,0,0.2-0.1l8.1-3.5l3.6,8l-0.2,0.1c-2.3,1-3.3,3.7-2.2,6   c0.8,1.7,2.4,2.6,4.1,2.6c0.6,0,1.2-0.1,1.9-0.4l0.2-0.1l27.3,60.9c0.7,1.7,2.4,2.7,4.1,2.7c0.6,0,1.2-0.1,1.8-0.4   c2.3-1,3.3-3.7,2.3-5.9l-27.4-61c1.8-1.2,2.5-3.5,1.6-5.6c-0.9-2-3.1-3-5.2-2.5l-17.8-39.6c1.7-9.4,0.4-16.6-4.2-21.6   c-6-6.5-15.9-7.6-22.8-7.3c-1.5-3.2-4.7-5.5-8.5-5.5c-4.6,0-8.4,3.4-9.2,7.8l-26.2,6.9c-2.4,0.6-3.8,3.1-3.2,5.5   c0.5,2,2.4,3.4,4.3,3.4c0.4,0,0.8,0,1.1-0.1l26.9-7.1c1.7,1.5,3.8,2.4,6.2,2.4c1.2,0,2.4-0.2,3.5-0.7l11,20.8   c-0.4,1.1-0.4,2.3,0.1,3.4l12.3,27.7l-48.4,81.5c-4.3,7.3-12.3,11.8-20.7,11.8h-38.4c-8.4,0-16.3-4.5-20.6-11.6l-10.7-17.7   l36.7-64.8h7.6c5.6,0,11.1,1.6,15.7,4.7c4.7,3.1,10.1,4.7,15.7,4.7c0,0,35.8,0,49.1,0s1.4-39.1-7.4-41.6   c-24.2-6.9-74.1-9.6-84.6,7.3c-1.1,1.7-7.3,11.9-11.5,18.7c-76.6-0.7-73-19.5-73-19.5c-16.8-0.8-42.8,5.2-42.8,5.2   c15.5,6.2,32.3,20.5,32.3,20.5h7.6l-32.1,73.8c-1.2,2.8,0.1,6,2.8,7.1c0.8,0.4,1.6,0.5,2.5,0.4c0.6,0,1.3-0.2,1.9-0.5h81l3.2,5.3   c5.6,9.3,15.8,15,26.6,15H270c10.9,0,21.2-5.8,26.8-15.2l20.3-34.1l3,2.3l-22.1,36.3c-4.9,8.1-13.7,13-23.2,13h-53.8l-9.8-7.3   c-0.6-0.4-1.3-0.7-2.1-0.7l-17.1-4.6l0,0c-2-0.7-4-0.6-5.7,0.3c-4.1,2.2-4.8,8.6-1.7,14.3c3.1,5.7,8.9,8.5,13,6.3   c0.2-0.1,0.5-0.3,0.7-0.5c0,0,0,0,0,0l13.2-6.2l6.2,4.6c0.6,0.4,1.3,0.7,2.1,0.7h55.1c11.9,0,22.9-6.2,29.1-16.3l23.8-39.1   C328.6,275.4,328.2,273.4,326.8,272.3z M228.5,212.3c0.6-1.6,6.3-16,12.1-18.3c0.3-0.1,0.6-0.3,1-0.4c6.3-2.7,21.1-9,67.8-2.1   c0.5,0.1,0.9,0.6,0.8,1.1c-0.1,0.5-0.6,0.9-1.1,0.8c-46.1-6.8-60.5-0.6-66.7,2c-0.4,0.2-0.7,0.3-1,0.4c-4.2,1.7-9.3,13-10.9,17.2   c-0.2,0.4-0.5,0.6-0.9,0.6c-0.1,0-0.2,0-0.4-0.1C228.5,213.4,228.3,212.8,228.5,212.3z M223.2,221.9h5.8l-32.8,58l-35-58h56.7   H223.2z M116.3,202.6c-0.1,0-0.1,0-0.2,0c-0.5,0-0.9-0.3-1-0.8c-0.1-0.5,0.3-1.1,0.8-1.1c0.2,0,18.2-3,29.6-3.2c0.6,0,1,0.4,1,1   c0,0.6-0.4,1-1,1C134.4,199.6,116.5,202.6,116.3,202.6z M126.8,292.8l28.9-66.4l40.1,66.4H126.8z M341.3,167.7   c3.1,3.4,4.5,8.2,4.1,14.4l-4.8-10.7c-1-2.3-3.7-3.3-5.9-2.3c-2.3,1-3.3,3.7-2.3,5.9l4.9,10.9l-5.5,2.2l-11.3-21.3   c0.8-1.4,1.2-2.9,1.2-4.6c0-0.3,0-0.6,0-0.9C327.7,161.2,336.3,162.3,341.3,167.7z M340.9,194.1l9.1,20.2l-3.9,1.7l-9-20.3   L340.9,194.1z M195.8,330.8c-2.9,1.6-7.1-0.4-9.3-4.5c-2.2-4.1-1.7-8.7,1.2-10.3c2.9-1.6,7.1,0.4,9.3,4.5   C199.3,324.6,198.8,329.2,195.8,330.8z"/><path d="M173.9,233.1l18.1,29.1c2.3,3.7,7.8,3.5,9.9-0.3l15.7-29.1c2.1-3.8-0.7-8.4-5-8.4h-33.8   C174.2,224.4,171.5,229.3,173.9,233.1z"/><path d="M151.7,245.5l-6.3,14.6c9.8,6.7,16.9,17.1,19.1,29.2h15.9C177.8,270.7,167,254.8,151.7,245.5z"/><path d="M138,277l-5.3,12.2H146C144.5,284.5,141.7,280.3,138,277z"/><path d="M120.5,270.1c-0.3,0-0.6,0-0.8,0c-15.3,0-27.7,12.4-27.7,27.7c0,15.3,12.4,27.7,27.7,27.7c12.3,0,22.8-8.1,26.4-19.2h-23.2   c-1.1,0.5-2.3,0.9-3.6,1c-0.2,0-0.3,0-0.5,0c-1.3,0-2.6-0.3-3.8-0.8c-4.8-2.1-7-7.6-4.9-12.4L120.5,270.1z"/><path d="M119.6,343.5c-25.2,0-45.7-20.5-45.7-45.7c0-25.2,20.5-45.7,45.7-45.7c2.8,0,5.6,0.3,8.3,0.8l6.4-14.7   c-4.7-1.2-9.6-1.8-14.7-1.8c-33.9,0-61.4,27.5-61.4,61.4c0,33.9,27.5,61.4,61.4,61.4c31,0,56.6-23,60.8-52.9h-15.9   C160.5,327.4,142,343.5,119.6,343.5z"/></g></svg>